<svg width="35" height="26" viewBox="0 0 35 26" fill="none" xmlns="http://www.w3.org/2000/svg">
<path d="M13.0307 4.19818H16.6974C16.8998 4.19818 17.0641 4.03391 17.0641 3.83151C17.0641 3.62911 16.8998 3.46484 16.6974 3.46484H13.0307C12.8283 3.46484 12.6641 3.62911 12.6641 3.83151C12.6641 4.03391 12.8283 4.19818 13.0307 4.19818ZM14.4974 22.5315H15.2307C15.4331 22.5315 15.5974 22.3672 15.5974 22.1648C15.5974 21.9624 15.4331 21.7982 15.2307 21.7982H14.4974C14.295 21.7982 14.1307 21.9624 14.1307 22.1648C14.1307 22.3672 14.295 22.5315 14.4974 22.5315Z" fill="white"/>
<path d="M18.9 24H10.8333C9.8228 24 9 23.1779 9 22.1667V3.83333C9 2.82207 9.8228 2 10.8333 2H18.9C19.9105 2 20.7333 2.82207 20.7333 3.83333C20.7333 4.03573 20.5691 4.2 20.3667 4.2C20.1643 4.2 20 4.03573 20 3.83333C20 3.22687 19.5065 2.73333 18.9 2.73333H10.8333C10.2269 2.73333 9.73333 3.22687 9.73333 3.83333V22.1667C9.73333 22.7731 10.2269 23.2667 10.8333 23.2667H18.9C19.5065 23.2667 20 22.7731 20 22.1667V18.5C20 18.2976 20.1643 18.1333 20.3667 18.1333C20.5691 18.1333 20.7333 18.2976 20.7333 18.5V22.1667C20.7333 23.1779 19.9105 24 18.9 24Z" fill="white"/>
<path d="M17.4289 19.9689C17.3842 19.9689 17.3387 19.9608 17.2962 19.9439C17.1546 19.8897 17.0622 19.7533 17.0622 19.6022V16.6689H15.2289C14.6224 16.6689 14.1289 16.1753 14.1289 15.5689V6.03555C14.1289 5.42908 14.6224 4.93555 15.2289 4.93555H25.4956C26.102 4.93555 26.5956 5.42908 26.5956 6.03555V15.5689C26.5956 16.1753 26.102 16.6689 25.4956 16.6689H20.6152L17.6995 19.8501C17.6284 19.9271 17.5294 19.9689 17.4289 19.9689ZM15.2289 5.66888C15.0265 5.66888 14.8622 5.83388 14.8622 6.03555V15.5689C14.8622 15.7705 15.0265 15.9355 15.2289 15.9355H17.4289C17.6313 15.9355 17.7956 16.0998 17.7956 16.3022V18.6599L20.1833 16.0543C20.253 15.9788 20.3512 15.9355 20.4539 15.9355H25.4956C25.698 15.9355 25.8622 15.7705 25.8622 15.5689V6.03555C25.8622 5.83388 25.698 5.66888 25.4956 5.66888H15.2289Z" fill="white"/>
<path d="M20.3693 13.7339C21.3974 13.7339 22.2026 12.9287 22.2026 11.9005C22.2026 11.0682 21.6372 10.4617 20.5226 10.098L20.4397 10.0709C20.0217 9.93445 19.636 9.75112 19.636 9.33385C19.636 8.90192 19.9374 8.60052 20.3693 8.60052C20.8856 8.60052 21.2302 8.87772 21.2332 8.88065C21.3894 9.01119 21.6196 8.99065 21.7502 8.83665C21.8807 8.68119 21.8602 8.45092 21.7054 8.32039C21.6834 8.30205 21.1584 7.86719 20.3693 7.86719C19.5326 7.86719 18.9026 8.49785 18.9026 9.33385C18.9026 10.3415 19.8882 10.6634 20.2116 10.7675L20.2945 10.7947C21.0858 11.0528 21.4693 11.4151 21.4693 11.9005C21.4693 12.5275 20.9963 13.0005 20.3693 13.0005C19.6888 13.0005 19.2994 12.5517 19.196 12.4139C19.0742 12.2511 18.844 12.2195 18.6826 12.3398C18.5198 12.4615 18.4868 12.6911 18.6086 12.8531C18.764 13.0607 19.3485 13.7339 20.3693 13.7339Z" fill="white"/>
<path d="M20.3667 14.4661C20.5691 14.4661 20.7333 14.3019 20.7333 14.0995V13.7328C20.7333 13.5304 20.5691 13.3661 20.3667 13.3661C20.1643 13.3661 20 13.5304 20 13.7328V14.0995C20 14.3019 20.1643 14.4661 20.3667 14.4661ZM20.3667 8.23281C20.5691 8.23281 20.7333 8.06855 20.7333 7.86615V7.49948C20.7333 7.29708 20.5691 7.13281 20.3667 7.13281C20.1643 7.13281 20 7.29708 20 7.49948V7.86615C20 8.06855 20.1643 8.23281 20.3667 8.23281Z" fill="white"/>
</svg>
