<svg width="35" height="35" viewBox="0 0 35 35" fill="none" xmlns="http://www.w3.org/2000/svg">
<path d="M30.5432 27.0931C30.4474 27.0931 30.3537 27.1215 30.2741 27.1747C30.1944 27.228 30.1323 27.3036 30.0956 27.3922C30.059 27.4807 30.0494 27.5781 30.068 27.6721C30.0867 27.7661 30.1329 27.8524 30.2006 27.9201C30.2684 27.9879 30.3547 28.034 30.4487 28.0527C30.5427 28.0714 30.6401 28.0618 30.7286 28.0252C30.8172 27.9885 30.8928 27.9264 30.9461 27.8467C30.9993 27.7671 31.0277 27.6734 31.0277 27.5776C31.0277 27.5139 31.0152 27.4509 30.9908 27.3922C30.9665 27.3334 30.9308 27.28 30.8858 27.235C30.8408 27.19 30.7874 27.1543 30.7286 27.1299C30.6699 27.1056 30.6068 27.0931 30.5432 27.0931V27.0931ZM32.6207 18.4323H32.2004V14.7485C32.1999 14.2775 32.0125 13.826 31.6795 13.4929C31.3465 13.1599 30.8949 12.9726 30.4239 12.972H26.6072V7.77645C26.6067 7.30546 26.4193 6.85392 26.0863 6.52089C25.7533 6.18786 25.3017 6.00053 24.8307 6H2.77645C2.30546 6.00053 1.85392 6.18786 1.52089 6.52089C1.18786 6.85392 1.00053 7.30546 1 7.77645L1 23.4834C1.00053 23.9543 1.18786 24.4059 1.52089 24.7389C1.85392 25.0719 2.30546 25.2593 2.77645 25.2598H9.05302C9.14846 25.8583 9.04022 26.4715 8.74565 27.0011L7.89994 28.5119C7.81476 28.6641 7.77085 28.8358 7.77257 29.0102C7.7743 29.1845 7.8216 29.3554 7.90978 29.5059C7.99795 29.6563 8.12394 29.781 8.27524 29.8677C8.42653 29.9544 8.59787 30 8.77223 30H13.0211C13.0428 29.9998 13.0643 29.9982 13.0857 29.9952C13.1267 29.998 13.1679 30 13.2096 30H32.6207C33.0061 29.9996 33.3755 29.8463 33.648 29.5738C33.9205 29.3013 34.0738 28.9319 34.0742 28.5465V19.8857C34.0738 19.5004 33.9205 19.131 33.648 18.8585C33.3755 18.586 33.0061 18.4327 32.6207 18.4323V18.4323ZM30.4239 13.941C30.638 13.9413 30.8433 14.0264 30.9946 14.1778C31.146 14.3292 31.2312 14.5344 31.2314 14.7485V18.4323H30.1133V15.5436C30.1133 15.48 30.1008 15.417 30.0764 15.3582C30.0521 15.2994 30.0164 15.246 29.9714 15.201C29.9264 15.156 29.873 15.1203 29.8142 15.096C29.7554 15.0716 29.6924 15.0591 29.6288 15.0591H15.1374C15.0738 15.0591 15.0108 15.0716 14.952 15.096C14.8933 15.1203 14.8398 15.156 14.7949 15.201C14.7499 15.246 14.7142 15.2994 14.6898 15.3582C14.6655 15.417 14.653 15.48 14.653 15.5436V25.012C14.653 25.0756 14.6655 25.1386 14.6898 25.1974C14.7142 25.2562 14.7499 25.3096 14.7949 25.3546C14.8398 25.3996 14.8933 25.4353 14.952 25.4596C15.0108 25.484 15.0738 25.4965 15.1374 25.4965H27.0122V26.6146H13.5349V14.7485C13.5351 14.5344 13.6203 14.3292 13.7716 14.1778C13.923 14.0264 14.1283 13.9413 14.3423 13.941L30.4239 13.941ZM1.96897 7.77645C1.96921 7.56236 2.05436 7.35712 2.20574 7.20574C2.35712 7.05436 2.56236 6.96921 2.77645 6.96897H24.8307C25.0448 6.96921 25.2501 7.05436 25.4015 7.20574C25.5528 7.35712 25.638 7.56236 25.6382 7.77645V12.972H14.3423C13.8714 12.9726 13.4198 13.1599 13.0868 13.4929C12.7537 13.826 12.5664 14.2775 12.5659 14.7485V20.6842H1.96897V7.77645ZM2.77645 24.2908C2.56236 24.2906 2.35712 24.2054 2.20574 24.0541C2.05436 23.9027 1.96921 23.6974 1.96897 23.4834V21.6532H12.5659V24.2908H9.44615C9.44451 24.2908 9.44285 24.2908 9.44119 24.2908H2.77645ZM11.4332 27.2878V28.2236C11.433 28.5044 11.4998 28.7812 11.6281 29.031H8.77223C8.76687 29.031 8.7616 29.0296 8.75694 29.027C8.75229 29.0243 8.74841 29.0204 8.7457 29.0158C8.74299 29.0112 8.74154 29.0059 8.74149 29.0006C8.74144 28.9952 8.7428 28.9899 8.74543 28.9852L9.59116 27.4744C9.966 26.8004 10.1196 26.0258 10.0304 25.2598H12.5659V26.6146H12.1065C11.928 26.6148 11.7568 26.6858 11.6306 26.812C11.5044 26.9382 11.4334 27.1093 11.4332 27.2878V27.2878ZM13.2096 29.031C12.9955 29.0308 12.7903 28.9456 12.6389 28.7943C12.4875 28.6429 12.4024 28.4376 12.4022 28.2236V27.5836H27.0122V28.5465C27.0122 28.7116 27.0403 28.8755 27.0956 29.031H13.2096ZM27.0122 19.8857V24.5275H15.6219V16.0281H29.1443V18.4323H28.4657C28.0803 18.4327 27.7109 18.586 27.4384 18.8585C27.1659 19.131 27.0127 19.5004 27.0122 19.8857V19.8857ZM33.1052 28.5465C33.1051 28.675 33.054 28.7981 32.9632 28.889C32.8723 28.9798 32.7492 29.0309 32.6207 29.031H28.4657C28.3372 29.0309 28.2141 28.9798 28.1233 28.889C28.0324 28.7981 27.9813 28.675 27.9812 28.5465V19.8857C27.9813 19.7573 28.0324 19.6341 28.1233 19.5433C28.2141 19.4525 28.3372 19.4014 28.4657 19.4013H29.5787C29.612 19.4047 29.6456 19.4047 29.6789 19.4013H31.6658C31.6991 19.4047 31.7327 19.4047 31.766 19.4013H32.6207C32.7492 19.4014 32.8723 19.4525 32.9632 19.5433C33.054 19.6341 33.1051 19.7573 33.1052 19.8857V28.5465Z" fill="black"/>
</svg>
