<svg width="15" height="14" viewBox="0 0 15 14" fill="none" xmlns="http://www.w3.org/2000/svg">
<path fill-rule="evenodd" clip-rule="evenodd" d="M6.64391 0.297519C7.09017 -0.0991731 7.76262 -0.0991731 8.20874 0.297519L14.7209 6.08622C14.883 6.23014 14.8976 6.4783 14.7535 6.64039L14.2319 7.22727C14.0879 7.3892 13.8397 7.40392 13.6776 7.25973L12.9226 6.5886V13.6075C12.9226 13.8243 12.7467 14 12.53 14H8.9968V8.70023C8.9968 8.59179 8.90887 8.50398 8.80043 8.50398H6.05249C5.94405 8.50398 5.85611 8.59179 5.85611 8.70023V14H2.32293C2.10618 14 1.93045 13.8243 1.93045 13.6075V6.58826L1.17505 7.25966C1.01298 7.40386 0.764832 7.38914 0.620746 7.2272L0.099181 6.64032C-0.0448786 6.47825 -0.0302916 6.2301 0.131779 6.08615L6.64391 0.297519Z" fill="url(#paint0_linear_3916_4596)"/>
<defs>
<linearGradient id="paint0_linear_3916_4596" x1="7.42634" y1="0" x2="7.42634" y2="14" gradientUnits="userSpaceOnUse">
<stop stop-color="#7E5AA4"/>
<stop offset="1" stop-color="#3E1F76"/>
</linearGradient>
</defs>
</svg>
