<svg width="35" height="35" viewBox="0 0 35 35" fill="none" xmlns="http://www.w3.org/2000/svg">
<path d="M30.0427 29.0871H27.4341C27.2611 29.0871 27.0952 29.1558 26.9729 29.2781C26.8506 29.4004 26.7819 29.5663 26.7819 29.7392C26.7819 29.9122 26.8506 30.0781 26.9729 30.2004C27.0952 30.3227 27.2611 30.3914 27.4341 30.3914H30.0427C30.2157 30.3914 30.3816 30.3227 30.5039 30.2004C30.6262 30.0781 30.6949 29.9122 30.6949 29.7392C30.6949 29.5663 30.6262 29.4004 30.5039 29.2781C30.3816 29.1558 30.2157 29.0871 30.0427 29.0871ZM24.8255 13.4353H5.26078C5.08782 13.4353 4.92194 13.504 4.79964 13.6263C4.67733 13.7486 4.60862 13.9145 4.60862 14.0875V29.7392C4.60862 29.9122 4.67733 30.0781 4.79964 30.2004C4.92194 30.3227 5.08782 30.3914 5.26078 30.3914H24.8255C24.9984 30.3914 25.1643 30.3227 25.2866 30.2004C25.4089 30.0781 25.4776 29.9122 25.4776 29.7392V14.0875C25.4776 13.9145 25.4089 13.7486 25.2866 13.6263C25.1643 13.504 24.9984 13.4353 24.8255 13.4353ZM24.1733 29.0871H5.91294V14.7396H24.1733V29.0871ZM30.0427 26.4784H27.4341C27.2611 26.4784 27.0952 26.5471 26.9729 26.6694C26.8506 26.7918 26.7819 26.9576 26.7819 27.1306C26.7819 27.3036 26.8506 27.4694 26.9729 27.5917C27.0952 27.714 27.2611 27.7828 27.4341 27.7828H30.0427C30.2157 27.7828 30.3816 27.714 30.5039 27.5917C30.6262 27.4694 30.6949 27.3036 30.6949 27.1306C30.6949 26.9576 30.6262 26.7918 30.5039 26.6694C30.3816 26.5471 30.2157 26.4784 30.0427 26.4784ZM28.7384 18.6526C28.3515 18.6526 27.9732 18.7673 27.6514 18.9823C27.3297 19.1973 27.0789 19.5028 26.9309 19.8603C26.7828 20.2178 26.744 20.6112 26.8195 20.9907C26.895 21.3702 27.0814 21.7188 27.355 21.9925C27.6286 22.2661 27.9772 22.4524 28.3567 22.5279C28.7362 22.6034 29.1296 22.5647 29.4871 22.4166C29.8446 22.2685 30.1502 22.0177 30.3651 21.696C30.5801 21.3742 30.6949 20.996 30.6949 20.609C30.6949 20.0901 30.4887 19.5925 30.1218 19.2256C29.7549 18.8587 29.2573 18.6526 28.7384 18.6526ZM28.7384 21.2612C28.6094 21.2612 28.4833 21.2229 28.3761 21.1513C28.2688 21.0796 28.1853 20.9778 28.1359 20.8586C28.0865 20.7394 28.0736 20.6083 28.0988 20.4818C28.1239 20.3553 28.1861 20.2391 28.2773 20.1479C28.3685 20.0567 28.4847 19.9946 28.6112 19.9694C28.7377 19.9442 28.8688 19.9572 28.988 20.0065C29.1071 20.0559 29.209 20.1395 29.2807 20.2467C29.3523 20.354 29.3906 20.48 29.3906 20.609C29.3906 20.782 29.3219 20.9479 29.1995 21.0702C29.0772 21.1925 28.9114 21.2612 28.7384 21.2612ZM30.0427 10.8267H23.6125L29.2471 4.07035C29.3019 4.00441 29.3432 3.92831 29.3686 3.84641C29.394 3.76451 29.403 3.67841 29.3951 3.59302C29.3873 3.50764 29.3627 3.42464 29.3227 3.34876C29.2828 3.27289 29.2283 3.20562 29.1623 3.15081C29.0964 3.096 29.0203 3.05472 28.9384 3.02931C28.8565 3.00391 28.7704 2.99489 28.685 3.00276C28.5996 3.01063 28.5166 3.03525 28.4407 3.0752C28.3648 3.11515 28.2976 3.16965 28.2428 3.23559L22.2168 10.4615L16.1909 3.23559C16.1361 3.16965 16.0688 3.11515 15.993 3.0752C15.9171 3.03525 15.8341 3.01063 15.7487 3.00276C15.5763 2.98686 15.4046 3.04012 15.2714 3.15081C15.1382 3.26151 15.0544 3.42058 15.0385 3.59302C15.0226 3.76547 15.0759 3.93717 15.1866 4.07035L20.8212 10.8267H5.26078C4.39597 10.8267 3.56658 11.1702 2.95506 11.7818C2.34355 12.3933 2 13.2227 2 14.0875V29.7392C2 30.604 2.34355 31.4334 2.95506 32.0449C3.56658 32.6565 4.39597 33 5.26078 33H30.0427C30.4709 33 30.8949 32.9157 31.2906 32.7518C31.6862 32.5879 32.0456 32.3477 32.3484 32.0449C32.6512 31.7421 32.8914 31.3827 33.0553 30.9871C33.2192 30.5915 33.3035 30.1674 33.3035 29.7392V14.0875C33.3035 13.6593 33.2192 13.2352 33.0553 12.8396C32.8914 12.444 32.6512 12.0845 32.3484 11.7818C32.0456 11.479 31.6862 11.2388 31.2906 11.0749C30.8949 10.911 30.4709 10.8267 30.0427 10.8267ZM31.9992 29.7392C31.9992 30.2581 31.7931 30.7557 31.4261 31.1227C31.0592 31.4896 30.5616 31.6957 30.0427 31.6957H5.26078C4.74189 31.6957 4.24426 31.4896 3.87735 31.1227C3.51044 30.7557 3.30431 30.2581 3.30431 29.7392V14.0875C3.30431 13.5686 3.51044 13.0709 3.87735 12.704C4.24426 12.3371 4.74189 12.131 5.26078 12.131H30.0427C30.5616 12.131 31.0592 12.3371 31.4261 12.704C31.7931 13.0709 31.9992 13.5686 31.9992 14.0875V29.7392ZM30.0427 23.8698H27.4341C27.2611 23.8698 27.0952 23.9385 26.9729 24.0608C26.8506 24.1831 26.7819 24.349 26.7819 24.522C26.7819 24.6949 26.8506 24.8608 26.9729 24.9831C27.0952 25.1054 27.2611 25.1741 27.4341 25.1741H30.0427C30.2157 25.1741 30.3816 25.1054 30.5039 24.9831C30.6262 24.8608 30.6949 24.6949 30.6949 24.522C30.6949 24.349 30.6262 24.1831 30.5039 24.0608C30.3816 23.9385 30.2157 23.8698 30.0427 23.8698ZM28.7384 13.4353C28.3515 13.4353 27.9732 13.5501 27.6514 13.765C27.3297 13.98 27.0789 14.2856 26.9309 14.6431C26.7828 15.0006 26.744 15.394 26.8195 15.7735C26.895 16.153 27.0814 16.5016 27.355 16.7752C27.6286 17.0488 27.9772 17.2352 28.3567 17.3107C28.7362 17.3861 29.1296 17.3474 29.4871 17.1993C29.8446 17.0512 30.1502 16.8005 30.3651 16.4787C30.5801 16.157 30.6949 15.7787 30.6949 15.3918C30.6949 14.8729 30.4887 14.3753 30.1218 14.0084C29.7549 13.6414 29.2573 13.4353 28.7384 13.4353ZM28.7384 16.0439C28.6094 16.0439 28.4833 16.0057 28.3761 15.934C28.2688 15.8624 28.1853 15.7605 28.1359 15.6414C28.0865 15.5222 28.0736 15.3911 28.0988 15.2646C28.1239 15.138 28.1861 15.0218 28.2773 14.9306C28.3685 14.8394 28.4847 14.7773 28.6112 14.7522C28.7377 14.727 28.8688 14.7399 28.988 14.7893C29.1071 14.8386 29.209 14.9222 29.2807 15.0295C29.3523 15.1367 29.3906 15.2628 29.3906 15.3918C29.3906 15.5647 29.3219 15.7306 29.1995 15.8529C29.0772 15.9752 28.9114 16.0439 28.7384 16.0439Z" fill="white"/>
</svg>
