<svg width="12" height="16" viewBox="0 0 12 16" fill="none" xmlns="http://www.w3.org/2000/svg">
<path d="M7.71847 11.2368C7.85182 11.3857 8.01841 11.46 8.18514 11.46C8.35185 11.46 8.51844 11.3857 8.6518 11.2368L11.0852 8.52049C11.3519 8.22279 11.3519 7.75767 11.0852 7.45996L8.6518 4.76234C8.38511 4.46464 7.96844 4.46464 7.70175 4.76234C7.43505 5.06004 7.43505 5.52516 7.70175 5.82286L9.00174 7.27402H4.95176C4.5851 7.27402 4.28516 7.60883 4.28516 8.01813C4.28516 8.42743 4.5851 8.76225 4.95176 8.76225H9.00174L7.70175 10.2134C7.4518 10.474 7.4518 10.9577 7.71849 11.2368H7.71847Z" fill="#808080"/>
<path d="M11.3334 5.58136C11.7001 5.58136 12 5.24655 12 4.83725V2.67909C12 1.19069 10.9333 0 9.59998 0H2.40002C1.06666 0 0 1.19069 0 2.67909V13.3395C0 14.8093 1.06666 16 2.40002 16H9.61665C10.9332 16 11.9999 14.8093 11.9999 13.3209V11.1628C11.9999 10.7535 11.7 10.4186 11.3333 10.4186C10.9666 10.4186 10.6667 10.7535 10.6667 11.1628V13.3209C10.6667 13.9721 10.1834 14.5116 9.60004 14.5116H2.40008C1.81669 14.5116 1.33342 13.9721 1.33342 13.3209V2.67912C1.33342 2.02789 1.81669 1.48843 2.40008 1.48843H9.61671C10.2001 1.48843 10.6834 2.02789 10.6834 2.67912V4.83728C10.6666 5.24658 10.9667 5.58139 11.3334 5.58139L11.3334 5.58136Z" fill="#808080"/>
</svg>
