<svg width="24" height="27" viewBox="0 0 24 27" fill="none" xmlns="http://www.w3.org/2000/svg">
<path d="M23.1022 1.36397H12.5314V0.511488C12.5314 0.21312 12.3183 0 12.02 0C11.7216 0 11.5085 0.255744 11.5085 0.511488V1.32134H0.937728C0.42624 1.32134 0 1.74758 0 2.25907V15.0463C0 17.348 1.87546 19.2234 4.17715 19.2234H11.4656V19.948H10.0164C9.71802 19.948 9.5049 20.2038 9.5049 20.4595C9.5049 20.7579 9.76065 20.971 10.0164 20.971H10.741L5.83949 25.9583C5.62637 26.1714 5.62637 26.5124 5.83949 26.7255C6.0526 26.9386 6.3936 26.9386 6.56409 26.7255L12.02 21.2696L17.4758 26.6826C17.689 26.8957 18.0299 26.8957 18.2431 26.6826C18.4562 26.4695 18.4562 26.1285 18.2431 25.958L13.2987 21.0565H13.9807C14.279 21.0565 14.4922 20.8007 14.4922 20.545C14.4922 20.2466 14.2364 20.0335 13.9807 20.0335H12.5314V19.3089H19.8199C22.1216 19.3089 23.9971 17.4335 23.9971 15.1318V2.34456C24.0397 1.74783 23.6134 1.36421 23.102 1.36421L23.1022 1.36397ZM22.9743 15.0465C22.9743 16.7515 21.5677 18.1581 19.8202 18.1581H4.21977C2.47219 18.1581 1.0656 16.7515 1.0656 15.0465V2.42981H22.9743V15.0465Z" fill="#3E1F76"/>
<path d="M15.6006 6.13867V6.99115H20.9288V6.13867H15.6006Z" fill="#3E1F76"/>
<path d="M15.6006 9.37787V8.52539H20.9288V9.37787H15.6006Z" fill="#3E1F76"/>
<path d="M15.6006 11.125V11.9775H20.9288V11.125H15.6006Z" fill="#3E1F76"/>
<path d="M15.6006 14.4072V13.5547H20.9288V14.4072H15.6006Z" fill="#3E1F76"/>
<path d="M4.0062 13.4263C5.02918 14.9608 6.73413 15.8985 8.60959 15.8985C9.67519 15.8985 10.7408 15.6002 11.6359 15.0034C11.9769 14.7477 12.3179 14.4919 12.5736 14.2362L9.97356 12.3181C9.93093 12.3181 9.93093 12.3607 9.88831 12.3607C9.50469 12.6165 9.07845 12.7444 8.60959 12.7444C7.84236 12.7444 7.11775 12.3607 6.64889 11.6788C6.00953 10.741 6.18002 9.41968 7.0325 8.65245L5.28492 6.00977C2.98322 7.75735 2.38649 10.997 4.0062 13.4263ZM5.75378 12.2755C6.39314 13.2132 7.45874 13.81 8.56697 13.81C8.99321 13.81 9.41945 13.7247 9.80306 13.5542H9.84569L10.826 14.2788L10.7408 14.3214C10.4424 14.4919 10.1441 14.6198 9.84569 14.7051C9.46207 14.8329 9.03583 14.8756 8.56697 14.8756C7.07513 14.8756 5.66854 14.1083 4.85868 12.8722C3.8357 11.2951 3.87833 9.24919 5.02918 7.71448L5.0718 7.67186L5.71116 8.65221V8.69483C5.02918 9.76043 5.0718 11.167 5.75378 12.2752V12.2755Z" fill="#3E1F76"/>
<path d="M8.56692 4.90234C7.71444 4.90234 6.86196 5.11546 6.09473 5.49908L7.88493 8.18439C8.09805 8.09914 8.3538 8.05652 8.56692 8.05652C9.20628 8.05652 9.80301 8.31226 10.2293 8.7385L12.9146 6.99092C11.8916 5.7122 10.2719 4.90234 8.56692 4.90234ZM10.2719 7.50241C9.71777 7.20404 9.16365 7.03354 8.56692 7.03354H8.39642H8.3538L7.75706 6.05319H7.84231C8.09805 6.01057 8.3538 5.96794 8.60954 5.96794C9.54727 5.96794 10.485 6.26631 11.2522 6.82042L11.2949 6.86305L10.2719 7.50241Z" fill="#3E1F76"/>
<path d="M13.4691 7.84277L10.7838 9.59036C10.9969 10.2297 10.9543 10.9543 10.6133 11.5084L13.1707 13.4265C14.2789 11.7642 14.4068 9.63298 13.4691 7.84302V7.84277ZM12.8297 11.8068L12.7871 11.8921L11.8494 11.2101V11.1674C11.9346 10.8265 11.9346 10.4855 11.9346 10.1445V10.1018L12.915 9.46248V9.54773C13.1281 10.2723 13.0428 11.0822 12.8297 11.8068Z" fill="#3E1F76"/>
</svg>
