<svg width="35" height="26" viewBox="0 0 35 26" fill="none" xmlns="http://www.w3.org/2000/svg">
<path d="M22.2215 20.9991V19.2214C22.2215 18.2785 21.847 17.3741 21.1802 16.7074C20.5134 16.0406 19.6091 15.666 18.6662 15.666H11.5554C10.6124 15.666 9.70811 16.0406 9.04135 16.7074C8.37458 17.3741 8 18.2785 8 19.2214V20.9991" stroke="white" stroke-width="2" stroke-linecap="round" stroke-linejoin="round"/>
<path d="M15.1101 12.1108C17.0737 12.1108 18.6655 10.519 18.6655 8.55539C18.6655 6.5918 17.0737 5 15.1101 5C13.1465 5 11.5547 6.5918 11.5547 8.55539C11.5547 10.519 13.1465 12.1108 15.1101 12.1108Z" stroke="white" stroke-width="2" stroke-linecap="round" stroke-linejoin="round"/>
<path d="M27.554 20.9989V19.2212C27.5534 18.4335 27.2912 17.6682 26.8085 17.0456C26.3259 16.423 25.6502 15.9783 24.8874 15.7814M21.332 5.11523C22.0968 5.31105 22.7747 5.75583 23.2587 6.37945C23.7428 7.00307 24.0055 7.77007 24.0055 8.55951C24.0055 9.34896 23.7428 10.116 23.2587 10.7396C22.7747 11.3632 22.0968 11.808 21.332 12.0038" stroke="white" stroke-width="2" stroke-linecap="round" stroke-linejoin="round"/>
</svg>
