<svg width="35" height="26" viewBox="0 0 35 26" fill="none" xmlns="http://www.w3.org/2000/svg">
<path fill-rule="evenodd" clip-rule="evenodd" d="M18.836 11.7749C18.7514 11.6245 18.6597 11.5968 18.4729 11.5863C18.2862 11.5736 17.817 11.5684 17.4104 11.5684C17.0031 11.5684 16.5336 11.5736 16.3471 11.5861C16.1607 11.5968 16.0688 11.6243 15.9834 11.7749C15.8964 11.925 15.8516 12.1837 15.8516 12.6392V12.6408C15.8516 13.0943 15.8964 13.3549 15.9834 13.5036C16.0688 13.6539 16.1605 13.6812 16.347 13.6939C16.5336 13.7048 17.0031 13.7112 17.4104 13.7112C17.817 13.7112 18.2862 13.7048 18.4731 13.6941C18.6599 13.6814 18.7516 13.6541 18.8362 13.5037C18.924 13.3551 18.9684 13.0945 18.9684 12.641V12.6394C18.9684 12.1837 18.924 11.925 18.836 11.7749Z" fill="white"/>
<path fill-rule="evenodd" clip-rule="evenodd" d="M17.0195 13.2216V12.0527L17.9936 12.6371L17.0195 13.2216Z" fill="black"/>
<path d="M11.9314 3C11.8366 3 11.7458 3.03763 11.6789 3.1046C11.6119 3.17158 11.5742 3.26242 11.5742 3.35714V22.6429C11.5742 22.7376 11.6119 22.8284 11.6789 22.8954C11.7458 22.9624 11.8366 23 11.9314 23H22.6456C22.7404 23 22.8313 22.9624 22.8982 22.8954C22.9652 22.8284 23.0028 22.7376 23.0028 22.6429V3.35714C23.0028 3.26242 22.9652 3.17158 22.8982 3.1046C22.8313 3.03763 22.7404 3 22.6456 3H11.9314ZM12.2885 3.71429H22.2885V22.2857H12.2885V3.71429Z" fill="white"/>
<path fill-rule="evenodd" clip-rule="evenodd" d="M15.8594 4.42773V5.14202H18.7165V4.42773H15.8594Z" fill="white"/>
<path d="M13.3532 5.85547C13.2585 5.85547 13.1677 5.8931 13.1007 5.96007C13.0337 6.02705 12.9961 6.11789 12.9961 6.21261V19.0698C12.9961 19.1645 13.0337 19.2553 13.1007 19.3223C13.1677 19.3893 13.2585 19.4269 13.3532 19.4269H21.2104C21.3051 19.4269 21.396 19.3893 21.463 19.3223C21.53 19.2553 21.5675 19.1645 21.5675 19.0698V6.21261C21.5675 6.11789 21.53 6.02705 21.463 5.96007C21.396 5.8931 21.3051 5.85547 21.2104 5.85547H13.3532ZM13.7104 6.56975H20.8532V18.7126H13.7104V6.56975Z" fill="white"/>
<path d="M18.0067 20.8549C18.0067 21.0444 17.9314 21.226 17.7974 21.36C17.6635 21.4939 17.4819 21.5692 17.2924 21.5692C17.103 21.5692 16.9213 21.4939 16.7873 21.36C16.6533 21.226 16.5781 21.0444 16.5781 20.8549C16.5781 20.6655 16.6533 20.4838 16.7873 20.3498C16.9213 20.2159 17.103 20.1406 17.2924 20.1406C17.4819 20.1406 17.6635 20.2159 17.7974 20.3498C17.9314 20.4838 18.0067 20.6655 18.0067 20.8549Z" fill="white"/>
<path d="M24.5357 8.6351L24.8678 9.17796L25.1464 9.7301L25.1536 9.73867L25.195 9.83867L25.855 9.56724L25.8036 9.44153L25.7922 9.41653L25.5014 8.84296L25.4872 8.81796L25.1486 8.26367L24.5357 8.6351ZM25.4386 10.4794L25.5657 10.8715V10.8787L25.705 11.463L25.7607 11.8115L26.4664 11.6972L26.405 11.3222L26.3978 11.2958L26.25 10.6844L26.2429 10.658L26.1136 10.2594L25.4386 10.4794ZM25.8386 12.4937L25.8522 12.6508L25.8593 13.2415V13.2472L25.82 13.8258V13.843L25.8536 13.8458L26.525 13.9422V13.8908L26.5692 13.2672V13.2408L26.5622 12.6158V12.5894L26.5479 12.433L25.8386 12.4937ZM25.5993 15.0051L25.4286 15.5694V15.5765L25.3272 15.8351L25.9921 16.0958L26.0972 15.828L26.1057 15.803L26.29 15.2015L26.2971 15.1751L26.4086 14.6751L25.7107 14.518L25.5993 15.0051ZM24.945 16.6808V16.6851L24.6293 17.2258L24.3436 17.6365L24.9307 18.0451L25.225 17.6194L25.24 17.5958L25.5636 17.0408L25.5779 17.0165L25.6943 16.7737L25.0514 16.463L24.945 16.6808ZM10.0393 8.6351L9.70715 9.17796L9.42857 9.7301L9.42142 9.73867L9.3807 9.83867L8.71926 9.56724L8.77218 9.44153L8.7836 9.41653L9.07361 8.84296L9.08782 8.81796L9.42718 8.26367L10.0393 8.6351ZM9.13569 10.4794L9.01004 10.8715V10.8787L8.87428 11.4358V11.4465L8.81639 11.8115L8.11004 11.6972L8.17142 11.3222L8.17857 11.2958L8.32497 10.6844L8.3336 10.658L8.46212 10.2594L9.13569 10.4794ZM8.73643 12.4937L8.72362 12.6351L8.71647 13.2422V13.2472L8.7557 13.8258V13.843L8.72213 13.8458L8.04996 13.9422L8.0429 13.918V13.8915L8 13.268V13.2415L8.00715 12.6165V12.5901L8.02145 12.4337L8.73643 12.4937ZM8.97639 15.0051L9.14641 15.5694V15.5765L9.2486 15.8351L8.58289 16.0958L8.4786 15.828L8.46858 15.803L8.28573 15.2015L8.27858 15.1751L8.16715 14.6751L8.86286 14.518L8.97639 15.0051ZM9.63932 16.6987L9.64647 16.7058L9.95147 17.2244L10.2371 17.6365L9.65074 18.0451L9.35568 17.6194L9.34147 17.5958L9.01571 17.0408L9.00359 17.0165L8.8864 16.7737L9.52928 16.463L9.63932 16.6987Z" fill="white"/>
</svg>
